<?xml version="1.0" encoding="UTF-8" standalone="no"?>
<!-- Created with Inkscape (http://www.inkscape.org/) -->

<svg
   xmlns:dc="http://purl.org/dc/elements/1.1/"
   xmlns:cc="http://creativecommons.org/ns#"
   xmlns:rdf="http://www.w3.org/1999/02/22-rdf-syntax-ns#"
   xmlns:svg="http://www.w3.org/2000/svg"
   xmlns="http://www.w3.org/2000/svg"
   xmlns:xlink="http://www.w3.org/1999/xlink"
   xmlns:sodipodi="http://sodipodi.sourceforge.net/DTD/sodipodi-0.dtd"
   xmlns:inkscape="http://www.inkscape.org/namespaces/inkscape"
   width="360"
   height="540"
   id="svg2"
   version="1.1"
   inkscape:version="0.48.1 r9760"
   sodipodi:docname="love_to_share.svg">
  <defs
     id="defs4">
    <pattern
       inkscape:collect="always"
       xlink:href="#pattern7164"
       id="pattern8060"
       patternTransform="translate(0,512.36206)" />
    <pattern
       patternUnits="userSpaceOnUse"
       width="360"
       height="540"
       patternTransform="translate(-523,624.36203)"
       id="pattern7164">
      <g
         transform="translate(0,-512.36203)"
         id="g7030">
        <g
           id="g6952"
           transform="translate(-349,231.00003)">
          <rect
             y="731.362"
             x="349"
             height="90"
             width="360"
             id="rect3755-0-4"
             style="fill:#2b2b6b;fill-opacity:1;stroke:none" />
          <flowRoot
             transform="matrix(0.99004819,0,0,1.1227546,412.83153,711.26525)"
             style="font-size:40px;font-style:normal;font-variant:normal;font-weight:bold;font-stretch:normal;line-height:125%;letter-spacing:0px;word-spacing:0px;fill:#ffffff;fill-opacity:1;stroke:none;font-family:AkzidenzGrotesk;-inkscape-font-specification:AkzidenzGrotesk Bold"
             id="flowRoot3757-8-4"
             xml:space="preserve"><flowRegion
               id="flowRegion3759-8-5"><rect
                 style="font-size:40px;font-style:normal;font-variant:normal;font-weight:bold;font-stretch:normal;fill:#ffffff;fill-opacity:1;stroke:none;font-family:AkzidenzGrotesk;-inkscape-font-specification:AkzidenzGrotesk Bold"
                 y="33.656162"
                 x="15.404012"
                 height="46.94556"
                 width="660.90546"
                 id="rect3761-3-8" /></flowRegion><flowPara
               id="flowPara3763-5-5">i love to share</flowPara></flowRoot>          <path
             style="fill:#ffffff;fill-opacity:1;stroke:none"
             inkscape:connector-curvature="0"
             d="m 396.75881,757.99929 c 5.10017,0 9.44252,1.79006 13.02364,5.36844 1.71392,1.72362 3.01703,3.69353 3.90703,5.90806 0.88944,2.21507 1.33559,4.56592 1.33559,7.05366 0,2.50951 -0.44045,4.86094 -1.31849,7.05312 -0.87919,2.19274 -2.17659,4.13 -3.89051,5.81009 -1.77945,1.76713 -3.79821,3.12071 -6.05628,4.05898 -2.25693,0.93827 -4.59078,1.40741 -6.99984,1.40741 -2.40906,0 -4.71556,-0.46283 -6.91893,-1.39137 -2.2028,-0.92683 -4.17826,-2.26893 -5.9258,-4.02519 -1.74753,-1.75627 -3.07685,-3.73707 -3.98851,-5.94126 -0.91166,-2.20421 -1.36749,-4.52756 -1.36749,-6.97178 0,-2.42245 0.46096,-4.75152 1.38344,-6.98837 0.92249,-2.23686 2.2632,-4.23885 4.021,-6.00657 3.47285,-3.55604 7.73771,-5.33522 12.79515,-5.33522 z m 0.0661,3.30631 c -4.16743,0 -7.67333,1.46239 -10.51714,4.38606 -1.43302,1.4624 -2.53442,3.1041 -3.30477,4.92624 -0.77149,1.82212 -1.1561,3.72617 -1.1561,5.71213 0,1.96419 0.38461,3.85735 1.1561,5.67834 0.77092,1.82327 1.87175,3.44894 3.30477,4.87812 1.43245,1.42975 3.04893,2.51983 4.85174,3.27366 1.8011,0.75267 3.68995,1.12902 5.6654,1.12902 1.95323,0 3.84607,-0.38093 5.68249,-1.14506 1.83415,-0.76472 3.48768,-1.86567 4.96457,-3.30573 2.84324,-2.79308 4.26429,-6.29527 4.26429,-10.50779 0,-2.02947 -0.36923,-3.94957 -1.1071,-5.76082 -0.73674,-1.81124 -1.81193,-3.42545 -3.22158,-4.84489 -2.93213,-2.946 -6.45854,-4.41928 -10.58267,-4.41928 z m -0.22848,11.98048 -2.44268,1.2768 c -0.26097,-0.54474 -0.58062,-0.92738 -0.9601,-1.14563 -0.38004,-0.21768 -0.73274,-0.32708 -1.05866,-0.32708 -1.62731,0 -2.44211,1.07976 -2.44211,3.24042 0,0.98183 0.20626,1.76658 0.61822,2.35602 0.41252,0.58942 1.02049,0.88442 1.82389,0.88442 1.06379,0 1.81249,-0.52412 2.24724,-1.57124 l 2.2461,1.14563 c -0.47748,0.89533 -1.13957,1.59874 -1.98627,2.11141 -0.84557,0.51325 -1.77945,0.7693 -2.79994,0.7693 -1.62789,0 -2.94182,-0.50122 -3.94008,-1.50593 -0.99827,-1.00359 -1.49741,-2.40011 -1.49741,-4.18902 0,-1.74596 0.50484,-3.13103 1.51393,-4.15694 1.00909,-1.02535 2.28428,-1.5386 3.82612,-1.5386 2.25807,-8.5e-4 3.87456,0.88272 4.85175,2.65044 z m 10.51657,0 -2.40963,1.2768 c -0.2604,-0.54474 -0.58119,-0.92738 -0.96067,-1.14563 -0.38061,-0.21768 -0.74471,-0.32708 -1.09057,-0.32708 -1.62788,0 -2.44268,1.07976 -2.44268,3.24042 0,0.98183 0.20683,1.76658 0.61879,2.35602 0.41196,0.58942 1.01935,0.88442 1.82389,0.88442 1.06265,0 1.81193,-0.52412 2.24553,-1.57124 l 2.27916,1.14563 c -0.49857,0.89533 -1.17206,1.59874 -2.01762,2.11141 -0.84671,0.51325 -1.76919,0.7693 -2.76746,0.7693 -1.65011,0 -2.96803,-0.50122 -3.9549,-1.50593 -0.98915,-1.00359 -1.48259,-2.40011 -1.48259,-4.18902 0,-1.74596 0.50427,-3.13103 1.5145,-4.15694 1.00852,-1.02535 2.28371,-1.5386 3.82498,-1.5386 2.2575,-8.5e-4 3.86487,0.88272 4.81927,2.65044 z"
             id="path3837-2-1" />
        </g>
        <g
           transform="translate(-349,141.00003)"
           id="g6960">
          <rect
             style="fill:#939393;fill-opacity:1;stroke:none"
             id="rect6962"
             width="360"
             height="90"
             x="349"
             y="731.362" />
          <flowRoot
             xml:space="preserve"
             id="flowRoot6964"
             style="font-size:40px;font-style:normal;font-variant:normal;font-weight:bold;font-stretch:normal;line-height:125%;letter-spacing:0px;word-spacing:0px;fill:#314c8b;fill-opacity:1;stroke:none;font-family:AkzidenzGrotesk;-inkscape-font-specification:AkzidenzGrotesk Bold"
             transform="matrix(0.99004819,0,0,1.1227546,412.83153,711.26525)"><flowRegion
               id="flowRegion6966"><rect
                 id="rect6968"
                 width="660.90546"
                 height="46.94556"
                 x="15.404012"
                 y="33.656162"
                 style="font-size:40px;font-style:normal;font-variant:normal;font-weight:bold;font-stretch:normal;fill:#314c8b;fill-opacity:1;stroke:none;font-family:AkzidenzGrotesk;-inkscape-font-specification:AkzidenzGrotesk Bold" /></flowRegion><flowPara
               id="flowPara6970">i love to share</flowPara></flowRoot>          <path
             id="path6972"
             d="m 396.75881,757.99929 c 5.10017,0 9.44252,1.79006 13.02364,5.36844 1.71392,1.72362 3.01703,3.69353 3.90703,5.90806 0.88944,2.21507 1.33559,4.56592 1.33559,7.05366 0,2.50951 -0.44045,4.86094 -1.31849,7.05312 -0.87919,2.19274 -2.17659,4.13 -3.89051,5.81009 -1.77945,1.76713 -3.79821,3.12071 -6.05628,4.05898 -2.25693,0.93827 -4.59078,1.40741 -6.99984,1.40741 -2.40906,0 -4.71556,-0.46283 -6.91893,-1.39137 -2.2028,-0.92683 -4.17826,-2.26893 -5.9258,-4.02519 -1.74753,-1.75627 -3.07685,-3.73707 -3.98851,-5.94126 -0.91166,-2.20421 -1.36749,-4.52756 -1.36749,-6.97178 0,-2.42245 0.46096,-4.75152 1.38344,-6.98837 0.92249,-2.23686 2.2632,-4.23885 4.021,-6.00657 3.47285,-3.55604 7.73771,-5.33522 12.79515,-5.33522 z m 0.0661,3.30631 c -4.16743,0 -7.67333,1.46239 -10.51714,4.38606 -1.43302,1.4624 -2.53442,3.1041 -3.30477,4.92624 -0.77149,1.82212 -1.1561,3.72617 -1.1561,5.71213 0,1.96419 0.38461,3.85735 1.1561,5.67834 0.77092,1.82327 1.87175,3.44894 3.30477,4.87812 1.43245,1.42975 3.04893,2.51983 4.85174,3.27366 1.8011,0.75267 3.68995,1.12902 5.6654,1.12902 1.95323,0 3.84607,-0.38093 5.68249,-1.14506 1.83415,-0.76472 3.48768,-1.86567 4.96457,-3.30573 2.84324,-2.79308 4.26429,-6.29527 4.26429,-10.50779 0,-2.02947 -0.36923,-3.94957 -1.1071,-5.76082 -0.73674,-1.81124 -1.81193,-3.42545 -3.22158,-4.84489 -2.93213,-2.946 -6.45854,-4.41928 -10.58267,-4.41928 z m -0.22848,11.98048 -2.44268,1.2768 c -0.26097,-0.54474 -0.58062,-0.92738 -0.9601,-1.14563 -0.38004,-0.21768 -0.73274,-0.32708 -1.05866,-0.32708 -1.62731,0 -2.44211,1.07976 -2.44211,3.24042 0,0.98183 0.20626,1.76658 0.61822,2.35602 0.41252,0.58942 1.02049,0.88442 1.82389,0.88442 1.06379,0 1.81249,-0.52412 2.24724,-1.57124 l 2.2461,1.14563 c -0.47748,0.89533 -1.13957,1.59874 -1.98627,2.11141 -0.84557,0.51325 -1.77945,0.7693 -2.79994,0.7693 -1.62789,0 -2.94182,-0.50122 -3.94008,-1.50593 -0.99827,-1.00359 -1.49741,-2.40011 -1.49741,-4.18902 0,-1.74596 0.50484,-3.13103 1.51393,-4.15694 1.00909,-1.02535 2.28428,-1.5386 3.82612,-1.5386 2.25807,-8.5e-4 3.87456,0.88272 4.85175,2.65044 z m 10.51657,0 -2.40963,1.2768 c -0.2604,-0.54474 -0.58119,-0.92738 -0.96067,-1.14563 -0.38061,-0.21768 -0.74471,-0.32708 -1.09057,-0.32708 -1.62788,0 -2.44268,1.07976 -2.44268,3.24042 0,0.98183 0.20683,1.76658 0.61879,2.35602 0.41196,0.58942 1.01935,0.88442 1.82389,0.88442 1.06265,0 1.81193,-0.52412 2.24553,-1.57124 l 2.27916,1.14563 c -0.49857,0.89533 -1.17206,1.59874 -2.01762,2.11141 -0.84671,0.51325 -1.76919,0.7693 -2.76746,0.7693 -1.65011,0 -2.96803,-0.50122 -3.9549,-1.50593 -0.98915,-1.00359 -1.48259,-2.40011 -1.48259,-4.18902 0,-1.74596 0.50427,-3.13103 1.5145,-4.15694 1.00852,-1.02535 2.28371,-1.5386 3.82498,-1.5386 2.2575,-8.5e-4 3.86487,0.88272 4.81927,2.65044 z"
             inkscape:connector-curvature="0"
             style="fill:#314c8b;fill-opacity:1;stroke:none" />
        </g>
        <g
           id="g6974"
           transform="translate(-349,51.00003)">
          <rect
             y="731.362"
             x="349"
             height="90"
             width="360"
             id="rect6976"
             style="fill:#314c8b;fill-opacity:1;stroke:none" />
          <flowRoot
             transform="matrix(0.99004819,0,0,1.1227546,412.83153,711.26525)"
             style="font-size:40px;font-style:normal;font-variant:normal;font-weight:bold;font-stretch:normal;line-height:125%;letter-spacing:0px;word-spacing:0px;fill:#ffffff;fill-opacity:1;stroke:none;font-family:AkzidenzGrotesk;-inkscape-font-specification:AkzidenzGrotesk Bold"
             id="flowRoot6978"
             xml:space="preserve"><flowRegion
               id="flowRegion6980"><rect
                 style="font-size:40px;font-style:normal;font-variant:normal;font-weight:bold;font-stretch:normal;fill:#ffffff;fill-opacity:1;stroke:none;font-family:AkzidenzGrotesk;-inkscape-font-specification:AkzidenzGrotesk Bold"
                 y="33.656162"
                 x="15.404012"
                 height="46.94556"
                 width="660.90546"
                 id="rect6982" /></flowRegion><flowPara
               id="flowPara6984">i love to share</flowPara></flowRoot>          <path
             style="fill:#ffffff;fill-opacity:1;stroke:none"
             inkscape:connector-curvature="0"
             d="m 396.75881,757.99929 c 5.10017,0 9.44252,1.79006 13.02364,5.36844 1.71392,1.72362 3.01703,3.69353 3.90703,5.90806 0.88944,2.21507 1.33559,4.56592 1.33559,7.05366 0,2.50951 -0.44045,4.86094 -1.31849,7.05312 -0.87919,2.19274 -2.17659,4.13 -3.89051,5.81009 -1.77945,1.76713 -3.79821,3.12071 -6.05628,4.05898 -2.25693,0.93827 -4.59078,1.40741 -6.99984,1.40741 -2.40906,0 -4.71556,-0.46283 -6.91893,-1.39137 -2.2028,-0.92683 -4.17826,-2.26893 -5.9258,-4.02519 -1.74753,-1.75627 -3.07685,-3.73707 -3.98851,-5.94126 -0.91166,-2.20421 -1.36749,-4.52756 -1.36749,-6.97178 0,-2.42245 0.46096,-4.75152 1.38344,-6.98837 0.92249,-2.23686 2.2632,-4.23885 4.021,-6.00657 3.47285,-3.55604 7.73771,-5.33522 12.79515,-5.33522 z m 0.0661,3.30631 c -4.16743,0 -7.67333,1.46239 -10.51714,4.38606 -1.43302,1.4624 -2.53442,3.1041 -3.30477,4.92624 -0.77149,1.82212 -1.1561,3.72617 -1.1561,5.71213 0,1.96419 0.38461,3.85735 1.1561,5.67834 0.77092,1.82327 1.87175,3.44894 3.30477,4.87812 1.43245,1.42975 3.04893,2.51983 4.85174,3.27366 1.8011,0.75267 3.68995,1.12902 5.6654,1.12902 1.95323,0 3.84607,-0.38093 5.68249,-1.14506 1.83415,-0.76472 3.48768,-1.86567 4.96457,-3.30573 2.84324,-2.79308 4.26429,-6.29527 4.26429,-10.50779 0,-2.02947 -0.36923,-3.94957 -1.1071,-5.76082 -0.73674,-1.81124 -1.81193,-3.42545 -3.22158,-4.84489 -2.93213,-2.946 -6.45854,-4.41928 -10.58267,-4.41928 z m -0.22848,11.98048 -2.44268,1.2768 c -0.26097,-0.54474 -0.58062,-0.92738 -0.9601,-1.14563 -0.38004,-0.21768 -0.73274,-0.32708 -1.05866,-0.32708 -1.62731,0 -2.44211,1.07976 -2.44211,3.24042 0,0.98183 0.20626,1.76658 0.61822,2.35602 0.41252,0.58942 1.02049,0.88442 1.82389,0.88442 1.06379,0 1.81249,-0.52412 2.24724,-1.57124 l 2.2461,1.14563 c -0.47748,0.89533 -1.13957,1.59874 -1.98627,2.11141 -0.84557,0.51325 -1.77945,0.7693 -2.79994,0.7693 -1.62789,0 -2.94182,-0.50122 -3.94008,-1.50593 -0.99827,-1.00359 -1.49741,-2.40011 -1.49741,-4.18902 0,-1.74596 0.50484,-3.13103 1.51393,-4.15694 1.00909,-1.02535 2.28428,-1.5386 3.82612,-1.5386 2.25807,-8.5e-4 3.87456,0.88272 4.85175,2.65044 z m 10.51657,0 -2.40963,1.2768 c -0.2604,-0.54474 -0.58119,-0.92738 -0.96067,-1.14563 -0.38061,-0.21768 -0.74471,-0.32708 -1.09057,-0.32708 -1.62788,0 -2.44268,1.07976 -2.44268,3.24042 0,0.98183 0.20683,1.76658 0.61879,2.35602 0.41196,0.58942 1.01935,0.88442 1.82389,0.88442 1.06265,0 1.81193,-0.52412 2.24553,-1.57124 l 2.27916,1.14563 c -0.49857,0.89533 -1.17206,1.59874 -2.01762,2.11141 -0.84671,0.51325 -1.76919,0.7693 -2.76746,0.7693 -1.65011,0 -2.96803,-0.50122 -3.9549,-1.50593 -0.98915,-1.00359 -1.48259,-2.40011 -1.48259,-4.18902 0,-1.74596 0.50427,-3.13103 1.5145,-4.15694 1.00852,-1.02535 2.28371,-1.5386 3.82498,-1.5386 2.2575,-8.5e-4 3.86487,0.88272 4.81927,2.65044 z"
             id="path6986" />
        </g>
        <g
           transform="translate(-349,-38.99997)"
           id="g6988">
          <rect
             style="fill:#939393;fill-opacity:1;stroke:none"
             id="rect6990"
             width="360"
             height="90"
             x="349"
             y="731.362" />
          <flowRoot
             xml:space="preserve"
             id="flowRoot6992"
             style="font-size:40px;font-style:normal;font-variant:normal;font-weight:bold;font-stretch:normal;line-height:125%;letter-spacing:0px;word-spacing:0px;fill:#7800c4;fill-opacity:1;stroke:none;font-family:AkzidenzGrotesk;-inkscape-font-specification:AkzidenzGrotesk Bold"
             transform="matrix(0.99004819,0,0,1.1227546,412.83153,711.26525)"><flowRegion
               id="flowRegion6994"><rect
                 id="rect6996"
                 width="660.90546"
                 height="46.94556"
                 x="15.404012"
                 y="33.656162"
                 style="font-size:40px;font-style:normal;font-variant:normal;font-weight:bold;font-stretch:normal;fill:#7800c4;fill-opacity:1;stroke:none;font-family:AkzidenzGrotesk;-inkscape-font-specification:AkzidenzGrotesk Bold" /></flowRegion><flowPara
               id="flowPara6998">i love to share</flowPara></flowRoot>          <path
             id="path7000"
             d="m 396.75881,757.99929 c 5.10017,0 9.44252,1.79006 13.02364,5.36844 1.71392,1.72362 3.01703,3.69353 3.90703,5.90806 0.88944,2.21507 1.33559,4.56592 1.33559,7.05366 0,2.50951 -0.44045,4.86094 -1.31849,7.05312 -0.87919,2.19274 -2.17659,4.13 -3.89051,5.81009 -1.77945,1.76713 -3.79821,3.12071 -6.05628,4.05898 -2.25693,0.93827 -4.59078,1.40741 -6.99984,1.40741 -2.40906,0 -4.71556,-0.46283 -6.91893,-1.39137 -2.2028,-0.92683 -4.17826,-2.26893 -5.9258,-4.02519 -1.74753,-1.75627 -3.07685,-3.73707 -3.98851,-5.94126 -0.91166,-2.20421 -1.36749,-4.52756 -1.36749,-6.97178 0,-2.42245 0.46096,-4.75152 1.38344,-6.98837 0.92249,-2.23686 2.2632,-4.23885 4.021,-6.00657 3.47285,-3.55604 7.73771,-5.33522 12.79515,-5.33522 z m 0.0661,3.30631 c -4.16743,0 -7.67333,1.46239 -10.51714,4.38606 -1.43302,1.4624 -2.53442,3.1041 -3.30477,4.92624 -0.77149,1.82212 -1.1561,3.72617 -1.1561,5.71213 0,1.96419 0.38461,3.85735 1.1561,5.67834 0.77092,1.82327 1.87175,3.44894 3.30477,4.87812 1.43245,1.42975 3.04893,2.51983 4.85174,3.27366 1.8011,0.75267 3.68995,1.12902 5.6654,1.12902 1.95323,0 3.84607,-0.38093 5.68249,-1.14506 1.83415,-0.76472 3.48768,-1.86567 4.96457,-3.30573 2.84324,-2.79308 4.26429,-6.29527 4.26429,-10.50779 0,-2.02947 -0.36923,-3.94957 -1.1071,-5.76082 -0.73674,-1.81124 -1.81193,-3.42545 -3.22158,-4.84489 -2.93213,-2.946 -6.45854,-4.41928 -10.58267,-4.41928 z m -0.22848,11.98048 -2.44268,1.2768 c -0.26097,-0.54474 -0.58062,-0.92738 -0.9601,-1.14563 -0.38004,-0.21768 -0.73274,-0.32708 -1.05866,-0.32708 -1.62731,0 -2.44211,1.07976 -2.44211,3.24042 0,0.98183 0.20626,1.76658 0.61822,2.35602 0.41252,0.58942 1.02049,0.88442 1.82389,0.88442 1.06379,0 1.81249,-0.52412 2.24724,-1.57124 l 2.2461,1.14563 c -0.47748,0.89533 -1.13957,1.59874 -1.98627,2.11141 -0.84557,0.51325 -1.77945,0.7693 -2.79994,0.7693 -1.62789,0 -2.94182,-0.50122 -3.94008,-1.50593 -0.99827,-1.00359 -1.49741,-2.40011 -1.49741,-4.18902 0,-1.74596 0.50484,-3.13103 1.51393,-4.15694 1.00909,-1.02535 2.28428,-1.5386 3.82612,-1.5386 2.25807,-8.5e-4 3.87456,0.88272 4.85175,2.65044 z m 10.51657,0 -2.40963,1.2768 c -0.2604,-0.54474 -0.58119,-0.92738 -0.96067,-1.14563 -0.38061,-0.21768 -0.74471,-0.32708 -1.09057,-0.32708 -1.62788,0 -2.44268,1.07976 -2.44268,3.24042 0,0.98183 0.20683,1.76658 0.61879,2.35602 0.41196,0.58942 1.01935,0.88442 1.82389,0.88442 1.06265,0 1.81193,-0.52412 2.24553,-1.57124 l 2.27916,1.14563 c -0.49857,0.89533 -1.17206,1.59874 -2.01762,2.11141 -0.84671,0.51325 -1.76919,0.7693 -2.76746,0.7693 -1.65011,0 -2.96803,-0.50122 -3.9549,-1.50593 -0.98915,-1.00359 -1.48259,-2.40011 -1.48259,-4.18902 0,-1.74596 0.50427,-3.13103 1.5145,-4.15694 1.00852,-1.02535 2.28371,-1.5386 3.82498,-1.5386 2.2575,-8.5e-4 3.86487,0.88272 4.81927,2.65044 z"
             inkscape:connector-curvature="0"
             style="fill:#7800c4;fill-opacity:1;stroke:none" />
        </g>
        <g
           id="g7002"
           transform="translate(-349,-128.99997)">
          <rect
             y="731.362"
             x="349"
             height="90"
             width="360"
             id="rect7004"
             style="fill:#2f7991;fill-opacity:1;stroke:none" />
          <flowRoot
             transform="matrix(0.99004819,0,0,1.1227546,412.83153,711.26525)"
             style="font-size:40px;font-style:normal;font-variant:normal;font-weight:bold;font-stretch:normal;line-height:125%;letter-spacing:0px;word-spacing:0px;fill:#ffffff;fill-opacity:1;stroke:none;font-family:AkzidenzGrotesk;-inkscape-font-specification:AkzidenzGrotesk Bold"
             id="flowRoot7006"
             xml:space="preserve"><flowRegion
               id="flowRegion7008"><rect
                 style="font-size:40px;font-style:normal;font-variant:normal;font-weight:bold;font-stretch:normal;fill:#ffffff;fill-opacity:1;stroke:none;font-family:AkzidenzGrotesk;-inkscape-font-specification:AkzidenzGrotesk Bold"
                 y="33.656162"
                 x="15.404012"
                 height="46.94556"
                 width="660.90546"
                 id="rect7010" /></flowRegion><flowPara
               id="flowPara7012">i love to share</flowPara></flowRoot>          <path
             style="fill:#ffffff;fill-opacity:1;stroke:none"
             inkscape:connector-curvature="0"
             d="m 396.75881,757.99929 c 5.10017,0 9.44252,1.79006 13.02364,5.36844 1.71392,1.72362 3.01703,3.69353 3.90703,5.90806 0.88944,2.21507 1.33559,4.56592 1.33559,7.05366 0,2.50951 -0.44045,4.86094 -1.31849,7.05312 -0.87919,2.19274 -2.17659,4.13 -3.89051,5.81009 -1.77945,1.76713 -3.79821,3.12071 -6.05628,4.05898 -2.25693,0.93827 -4.59078,1.40741 -6.99984,1.40741 -2.40906,0 -4.71556,-0.46283 -6.91893,-1.39137 -2.2028,-0.92683 -4.17826,-2.26893 -5.9258,-4.02519 -1.74753,-1.75627 -3.07685,-3.73707 -3.98851,-5.94126 -0.91166,-2.20421 -1.36749,-4.52756 -1.36749,-6.97178 0,-2.42245 0.46096,-4.75152 1.38344,-6.98837 0.92249,-2.23686 2.2632,-4.23885 4.021,-6.00657 3.47285,-3.55604 7.73771,-5.33522 12.79515,-5.33522 z m 0.0661,3.30631 c -4.16743,0 -7.67333,1.46239 -10.51714,4.38606 -1.43302,1.4624 -2.53442,3.1041 -3.30477,4.92624 -0.77149,1.82212 -1.1561,3.72617 -1.1561,5.71213 0,1.96419 0.38461,3.85735 1.1561,5.67834 0.77092,1.82327 1.87175,3.44894 3.30477,4.87812 1.43245,1.42975 3.04893,2.51983 4.85174,3.27366 1.8011,0.75267 3.68995,1.12902 5.6654,1.12902 1.95323,0 3.84607,-0.38093 5.68249,-1.14506 1.83415,-0.76472 3.48768,-1.86567 4.96457,-3.30573 2.84324,-2.79308 4.26429,-6.29527 4.26429,-10.50779 0,-2.02947 -0.36923,-3.94957 -1.1071,-5.76082 -0.73674,-1.81124 -1.81193,-3.42545 -3.22158,-4.84489 -2.93213,-2.946 -6.45854,-4.41928 -10.58267,-4.41928 z m -0.22848,11.98048 -2.44268,1.2768 c -0.26097,-0.54474 -0.58062,-0.92738 -0.9601,-1.14563 -0.38004,-0.21768 -0.73274,-0.32708 -1.05866,-0.32708 -1.62731,0 -2.44211,1.07976 -2.44211,3.24042 0,0.98183 0.20626,1.76658 0.61822,2.35602 0.41252,0.58942 1.02049,0.88442 1.82389,0.88442 1.06379,0 1.81249,-0.52412 2.24724,-1.57124 l 2.2461,1.14563 c -0.47748,0.89533 -1.13957,1.59874 -1.98627,2.11141 -0.84557,0.51325 -1.77945,0.7693 -2.79994,0.7693 -1.62789,0 -2.94182,-0.50122 -3.94008,-1.50593 -0.99827,-1.00359 -1.49741,-2.40011 -1.49741,-4.18902 0,-1.74596 0.50484,-3.13103 1.51393,-4.15694 1.00909,-1.02535 2.28428,-1.5386 3.82612,-1.5386 2.25807,-8.5e-4 3.87456,0.88272 4.85175,2.65044 z m 10.51657,0 -2.40963,1.2768 c -0.2604,-0.54474 -0.58119,-0.92738 -0.96067,-1.14563 -0.38061,-0.21768 -0.74471,-0.32708 -1.09057,-0.32708 -1.62788,0 -2.44268,1.07976 -2.44268,3.24042 0,0.98183 0.20683,1.76658 0.61879,2.35602 0.41196,0.58942 1.01935,0.88442 1.82389,0.88442 1.06265,0 1.81193,-0.52412 2.24553,-1.57124 l 2.27916,1.14563 c -0.49857,0.89533 -1.17206,1.59874 -2.01762,2.11141 -0.84671,0.51325 -1.76919,0.7693 -2.76746,0.7693 -1.65011,0 -2.96803,-0.50122 -3.9549,-1.50593 -0.98915,-1.00359 -1.48259,-2.40011 -1.48259,-4.18902 0,-1.74596 0.50427,-3.13103 1.5145,-4.15694 1.00852,-1.02535 2.28371,-1.5386 3.82498,-1.5386 2.2575,-8.5e-4 3.86487,0.88272 4.81927,2.65044 z"
             id="path7014" />
        </g>
        <g
           transform="translate(-349,-218.99997)"
           id="g7016">
          <rect
             style="fill:#388882;fill-opacity:1;stroke:none"
             id="rect7018"
             width="360"
             height="90"
             x="349"
             y="731.362" />
          <flowRoot
             xml:space="preserve"
             id="flowRoot7020"
             style="font-size:40px;font-style:normal;font-variant:normal;font-weight:bold;font-stretch:normal;line-height:125%;letter-spacing:0px;word-spacing:0px;fill:#ffffff;fill-opacity:1;stroke:none;font-family:AkzidenzGrotesk;-inkscape-font-specification:AkzidenzGrotesk Bold"
             transform="matrix(0.99004819,0,0,1.1227546,412.83153,711.26525)"><flowRegion
               id="flowRegion7022"><rect
                 id="rect7024"
                 width="660.90546"
                 height="46.94556"
                 x="15.404012"
                 y="33.656162"
                 style="font-size:40px;font-style:normal;font-variant:normal;font-weight:bold;font-stretch:normal;fill:#ffffff;fill-opacity:1;stroke:none;font-family:AkzidenzGrotesk;-inkscape-font-specification:AkzidenzGrotesk Bold" /></flowRegion><flowPara
               id="flowPara7026">i love to share</flowPara></flowRoot>          <path
             id="path7028"
             d="m 396.75881,757.99929 c 5.10017,0 9.44252,1.79006 13.02364,5.36844 1.71392,1.72362 3.01703,3.69353 3.90703,5.90806 0.88944,2.21507 1.33559,4.56592 1.33559,7.05366 0,2.50951 -0.44045,4.86094 -1.31849,7.05312 -0.87919,2.19274 -2.17659,4.13 -3.89051,5.81009 -1.77945,1.76713 -3.79821,3.12071 -6.05628,4.05898 -2.25693,0.93827 -4.59078,1.40741 -6.99984,1.40741 -2.40906,0 -4.71556,-0.46283 -6.91893,-1.39137 -2.2028,-0.92683 -4.17826,-2.26893 -5.9258,-4.02519 -1.74753,-1.75627 -3.07685,-3.73707 -3.98851,-5.94126 -0.91166,-2.20421 -1.36749,-4.52756 -1.36749,-6.97178 0,-2.42245 0.46096,-4.75152 1.38344,-6.98837 0.92249,-2.23686 2.2632,-4.23885 4.021,-6.00657 3.47285,-3.55604 7.73771,-5.33522 12.79515,-5.33522 z m 0.0661,3.30631 c -4.16743,0 -7.67333,1.46239 -10.51714,4.38606 -1.43302,1.4624 -2.53442,3.1041 -3.30477,4.92624 -0.77149,1.82212 -1.1561,3.72617 -1.1561,5.71213 0,1.96419 0.38461,3.85735 1.1561,5.67834 0.77092,1.82327 1.87175,3.44894 3.30477,4.87812 1.43245,1.42975 3.04893,2.51983 4.85174,3.27366 1.8011,0.75267 3.68995,1.12902 5.6654,1.12902 1.95323,0 3.84607,-0.38093 5.68249,-1.14506 1.83415,-0.76472 3.48768,-1.86567 4.96457,-3.30573 2.84324,-2.79308 4.26429,-6.29527 4.26429,-10.50779 0,-2.02947 -0.36923,-3.94957 -1.1071,-5.76082 -0.73674,-1.81124 -1.81193,-3.42545 -3.22158,-4.84489 -2.93213,-2.946 -6.45854,-4.41928 -10.58267,-4.41928 z m -0.22848,11.98048 -2.44268,1.2768 c -0.26097,-0.54474 -0.58062,-0.92738 -0.9601,-1.14563 -0.38004,-0.21768 -0.73274,-0.32708 -1.05866,-0.32708 -1.62731,0 -2.44211,1.07976 -2.44211,3.24042 0,0.98183 0.20626,1.76658 0.61822,2.35602 0.41252,0.58942 1.02049,0.88442 1.82389,0.88442 1.06379,0 1.81249,-0.52412 2.24724,-1.57124 l 2.2461,1.14563 c -0.47748,0.89533 -1.13957,1.59874 -1.98627,2.11141 -0.84557,0.51325 -1.77945,0.7693 -2.79994,0.7693 -1.62789,0 -2.94182,-0.50122 -3.94008,-1.50593 -0.99827,-1.00359 -1.49741,-2.40011 -1.49741,-4.18902 0,-1.74596 0.50484,-3.13103 1.51393,-4.15694 1.00909,-1.02535 2.28428,-1.5386 3.82612,-1.5386 2.25807,-8.5e-4 3.87456,0.88272 4.85175,2.65044 z m 10.51657,0 -2.40963,1.2768 c -0.2604,-0.54474 -0.58119,-0.92738 -0.96067,-1.14563 -0.38061,-0.21768 -0.74471,-0.32708 -1.09057,-0.32708 -1.62788,0 -2.44268,1.07976 -2.44268,3.24042 0,0.98183 0.20683,1.76658 0.61879,2.35602 0.41196,0.58942 1.01935,0.88442 1.82389,0.88442 1.06265,0 1.81193,-0.52412 2.24553,-1.57124 l 2.27916,1.14563 c -0.49857,0.89533 -1.17206,1.59874 -2.01762,2.11141 -0.84671,0.51325 -1.76919,0.7693 -2.76746,0.7693 -1.65011,0 -2.96803,-0.50122 -3.9549,-1.50593 -0.98915,-1.00359 -1.48259,-2.40011 -1.48259,-4.18902 0,-1.74596 0.50427,-3.13103 1.5145,-4.15694 1.00852,-1.02535 2.28371,-1.5386 3.82498,-1.5386 2.2575,-8.5e-4 3.86487,0.88272 4.81927,2.65044 z"
             inkscape:connector-curvature="0"
             style="fill:#ffffff;fill-opacity:1;stroke:none" />
        </g>
      </g>
    </pattern>
  </defs>
  <sodipodi:namedview
     id="base"
     pagecolor="#ffffff"
     bordercolor="#666666"
     borderopacity="1.0"
     inkscape:pageopacity="0.0"
     inkscape:pageshadow="2"
     inkscape:zoom="1"
     inkscape:cx="82.670452"
     inkscape:cy="168.88328"
     inkscape:document-units="px"
     inkscape:current-layer="layer1"
     showgrid="true"
     units="px"
     showguides="true"
     inkscape:guide-bbox="true"
     objecttolerance="20"
     inkscape:window-width="1920"
     inkscape:window-height="1062"
     inkscape:window-x="0"
     inkscape:window-y="0"
     inkscape:window-maximized="1" />
  <metadata
     id="metadata7">
    <rdf:RDF>
      <cc:Work
         rdf:about="">
        <dc:format>image/svg+xml</dc:format>
        <dc:type
           rdf:resource="http://purl.org/dc/dcmitype/StillImage" />
      </cc:Work>
    </rdf:RDF>
  </metadata>
  <g
     inkscape:label="Layer 1"
     inkscape:groupmode="layer"
     id="layer1"
     transform="translate(0,-512.36203)">
    <rect
       style="fill:url(#pattern8060);stroke:none"
       width="360"
       height="540"
       x="0"
       y="512.362"
       id="rect7209" />
  </g>
</svg>
